<svg width="368" height="171" viewBox="0 0 368 171" fill="none" xmlns="http://www.w3.org/2000/svg">
<g clip-path="url(#clip0_1_3324)">
<path fill-rule="evenodd" clip-rule="evenodd" d="M268.4 85.7C268.4 70.6 258.2 59.9 243.3 59.9C228.3 59.9 218.1 70.5 218.1 85.7C218.1 100.5 228.3 111.3 243.3 111.3C258.1 111.3 268.4 100.5 268.4 85.7ZM243.3 127.6C219.6 127.6 200.6 109.8 200.6 85.7C200.6 61.7 219.7 43.6 243.3 43.6C266.8 43.6 285.9 61.7 285.9 85.7C285.9 109.8 266.8 127.6 243.3 127.6ZM294.3 46.9C294.3 45.6 295 44.8 296.4 44.8H309.6C310.9 44.8 311.7 45.5 311.7 46.9V78.6L341.2 46C342 45.1 342.8 44.8 344 44.8H363C364.3 44.8 364.4 46.1 363.6 47L326.6 84.4L365.6 124.4C366.4 125.3 366.3 126.6 365 126.6H346.2C344.6 126.6 344.2 126.2 343.3 125.5L311.7 90.9V124.5C311.7 125.8 311 126.6 309.6 126.6H296.4C295.1 126.6 294.3 125.9 294.3 124.5V46.9Z" fill="black"/>
<path d="M1.69995 82.2C1.69995 43.8 1.69995 24.5 13.6 12.6C25.6 0.700013 44.7999 0.700012 83.2 0.700012H89.9999C128.4 0.700012 147.7 0.700013 159.6 12.6C171.5 24.5 171.5 43.8 171.5 82.2V89C171.5 127.4 171.5 146.7 159.6 158.6C147.7 170.5 128.4 170.5 89.9999 170.5H83.2C44.7999 170.5 25.5 170.5 13.6 158.6C1.69995 146.7 1.69995 127.5 1.69995 89V82.2Z" fill="#FF7700"/>
<path d="M86.6 85.2C94.9 85.2 102.4 81.8 107.8 76.4C113.2 71 116.6 63.5 116.6 55.2C116.6 46.9 113.2 39.4 107.8 34C102.4 28.6 94.9 25.2 86.6 25.2C78.3 25.2 70.8 28.6 65.4 34C60 39.4 56.6 46.9 56.6 55.2C56.6 63.5 60 71 65.4 76.4C70.8 81.8 78.4 85.2 86.6 85.2ZM77 45.5C79.5 43 82.9 41.5 86.6 41.5C90.4 41.5 93.8 43 96.2 45.5C98.7 48 100.2 51.4 100.2 55.1C100.2 58.9 98.7 62.3 96.2 64.7C93.7 67.2 90.3 68.7 86.6 68.7C82.8 68.7 79.4 67.2 77 64.7C74.5 62.2 73 58.8 73 55.1C73 51.4 74.6 48 77 45.5Z" fill="white"/>
<path d="M127 97.3L118.2 85.3C117.7 84.6 116.7 84.5 116.1 85.1C107.8 92.2 97.5999 96.8 86.5999 96.8C75.5999 96.8 65.3999 92.2 57.0999 85.1C56.4999 84.6 55.4999 84.7 54.9999 85.3L46.1999 97.3C45.7999 97.9 45.8999 98.7 46.3999 99.2C53.7999 105.2 62.3999 109.3 71.3999 111.4L52.7999 144.2C52.2999 145.1 52.9999 146.3 53.9999 146.3H72.1999C72.7999 146.3 73.2999 146 73.4999 145.4L86.4999 116.4L99.4999 145.4C99.6999 145.9 100.2 146.3 100.8 146.3H119C120.1 146.3 120.7 145.2 120.2 144.2L101.6 111.4C110.6 109.3 119.2 105.3 126.6 99.2C127.4 98.7 127.5 97.9 127 97.3Z" fill="white"/>
</g>
<defs>
<clipPath id="clip0_1_3324">
<rect width="366.7" height="171" fill="white" transform="translate(0.399902)"/>
</clipPath>
</defs>
</svg>
