<svg width="368" height="171" viewBox="0 0 368 171" fill="none" xmlns="http://www.w3.org/2000/svg">
<g clip-path="url(#clip0_1_3311)">
<path fill-rule="evenodd" clip-rule="evenodd" d="M268.7 85.7C268.7 70.6 258.5 59.9 243.6 59.9C228.6 59.9 218.4 70.5 218.4 85.7C218.4 100.5 228.6 111.3 243.6 111.3C258.4 111.3 268.7 100.5 268.7 85.7ZM243.6 127.6C219.9 127.6 200.9 109.8 200.9 85.7C200.9 61.7 220 43.6 243.6 43.6C267.1 43.6 286.2 61.7 286.2 85.7C286.2 109.8 267.1 127.6 243.6 127.6ZM294.6 46.9C294.6 45.6 295.3 44.8 296.7 44.8H309.9C311.2 44.8 312 45.5 312 46.9V78.6L341.5 46C342.3 45.1 343.1 44.8 344.3 44.8H363.3C364.6 44.8 364.7 46.1 363.9 47L326.9 84.4L365.9 124.4C366.7 125.3 366.6 126.6 365.3 126.6H346.5C344.9 126.6 344.5 126.2 343.6 125.5L312 90.9V124.5C312 125.8 311.3 126.6 309.9 126.6H296.7C295.4 126.6 294.6 125.9 294.6 124.5V46.9Z" fill="#FF7700"/>
<path d="M2 82.2C2 43.8 2 24.5 13.9 12.6C25.9 0.700013 45.1 0.700012 83.5 0.700012H90.3C128.7 0.700012 148 0.700013 159.9 12.6C171.8 24.5 171.8 43.8 171.8 82.2V89C171.8 127.4 171.8 146.7 159.9 158.6C148 170.5 128.7 170.5 90.3 170.5H83.5C45.1 170.5 25.8 170.5 13.9 158.6C2 146.7 2 127.5 2 89V82.2Z" fill="#FF7700"/>
<path d="M86.9 85.2C95.2 85.2 102.7 81.8 108.1 76.4C113.5 71 116.9 63.5 116.9 55.2C116.9 46.9 113.5 39.4 108.1 34C102.7 28.6 95.2 25.2 86.9 25.2C78.6 25.2 71.1 28.6 65.7 34C60.3 39.4 56.9 46.9 56.9 55.2C56.9 63.5 60.3 71 65.7 76.4C71.1 81.8 78.7 85.2 86.9 85.2ZM77.3 45.5C79.8 43 83.2 41.5 86.9 41.5C90.7 41.5 94.1 43 96.5 45.5C99 48 100.5 51.4 100.5 55.1C100.5 58.9 99 62.3 96.5 64.7C94 67.2 90.6 68.7 86.9 68.7C83.1 68.7 79.7 67.2 77.3 64.7C74.8 62.2 73.3 58.8 73.3 55.1C73.3 51.4 74.9 48 77.3 45.5Z" fill="white"/>
<path d="M127.3 97.3L118.5 85.3C118 84.6 117 84.5 116.4 85.1C108.1 92.2 97.9 96.8 86.9 96.8C75.9 96.8 65.7 92.2 57.4 85.1C56.8 84.6 55.8 84.7 55.3 85.3L46.5 97.3C46.1 97.9 46.2 98.7 46.7 99.2C54.1 105.2 62.7 109.3 71.7 111.4L53.1 144.2C52.6 145.1 53.3 146.3 54.3 146.3H72.5C73.1 146.3 73.6 146 73.8 145.4L86.8 116.4L99.8 145.4C100 145.9 100.5 146.3 101.1 146.3H119.3C120.4 146.3 121 145.2 120.5 144.2L101.9 111.4C110.9 109.3 119.5 105.3 126.9 99.2C127.7 98.7 127.8 97.9 127.3 97.3Z" fill="white"/>
</g>
<defs>
<clipPath id="clip0_1_3311">
<rect width="366.7" height="171" fill="white" transform="translate(0.699951)"/>
</clipPath>
</defs>
</svg>
